HIERARCHY
ROOT Hips
{
	OFFSET -3.958830 18.904000 13.208200
	CHANNELS 6 Xposition Yposition Zposition Zrotation Yrotation Xrotation 
	JOINT LHipJoint
	{
		OFFSET 0.000000 0.000000 0.000000
		CHANNELS 3 Zrotation Yrotation Xrotation
		JOINT LeftUpLeg
		{
			OFFSET 1.800000 -1.400000 0.085000
			CHANNELS 3 Zrotation Yrotation Xrotation
			JOINT LeftLeg
			{
				OFFSET 2.215000 -6.000000 0.000000
				CHANNELS 3 Zrotation Yrotation Xrotation
				JOINT LeftFoot
				{
					OFFSET 2.500000 -6.900000 0.000000
					CHANNELS 3 Zrotation Yrotation Xrotation
					JOINT LeftToeBase
					{
						OFFSET 0.200000 -0.500000 1.950000
						CHANNELS 3 Zrotation Yrotation Xrotation
						End Site
						{
							OFFSET 0.000000 0.000000 0.000000
						}
					}
				}
			}
		}
	}
	JOINT RHipJoint
	{
		OFFSET 0.000000 0.000000 0.000000
		CHANNELS 3 Zrotation Yrotation Xrotation
		JOINT RightUpLeg
		{
			OFFSET -1.800000 -1.400000 0.085000
			CHANNELS 3 Zrotation Yrotation Xrotation
			JOINT RightLeg
			{
				OFFSET -2.215000 -6.000000 0.000000
				CHANNELS 3 Zrotation Yrotation Xrotation
				JOINT RightFoot
				{
					OFFSET -2.500000 -6.900000 0.000000
					CHANNELS 3 Zrotation Yrotation Xrotation
					JOINT RightToeBase
					{
						OFFSET -0.200000 -0.500000 1.950000
						CHANNELS 3 Zrotation Yrotation Xrotation
						End Site
						{
							OFFSET 0.000000 0.000000 0.000000
						}
					}
				}
			}
		}
	}
	JOINT LowerBack
	{
		OFFSET 0.000000 0.000000 0.000000
		CHANNELS 3 Zrotation Yrotation Xrotation
		JOINT Spine
		{
			OFFSET -0.087000 1.940000 -0.288900
			CHANNELS 3 Zrotation Yrotation Xrotation
			JOINT Spine1
			{
				OFFSET 0.000000 1.950000 0.060000
				CHANNELS 3 Zrotation Yrotation Xrotation
				JOINT Neck
				{
					OFFSET 0.000000 0.000000 0.000000
					CHANNELS 3 Zrotation Yrotation Xrotation
					JOINT Neck1
					{
						OFFSET 0.000000 1.600000 0.340000
						CHANNELS 3 Zrotation Yrotation Xrotation
						JOINT Head
						{
							OFFSET 0.000000 1.667000 -0.240000
							CHANNELS 3 Zrotation Yrotation Xrotation
							End Site
							{
								OFFSET 0.000000 0.000000 0.000000
							}
						}
					}
				}
				JOINT LeftShoulder
				{
					OFFSET 0.000000 0.000000 0.000000
					CHANNELS 3 Zrotation Yrotation Xrotation
					JOINT LeftArm
					{
						OFFSET 2.700000 1.550000 -0.730000
						CHANNELS 3 Zrotation Yrotation Xrotation
						JOINT LeftForeArm
						{
							OFFSET 5.450000 0.000000 0.000000
							CHANNELS 3 Zrotation Yrotation Xrotation
							JOINT LeftHand
							{
								OFFSET 3.450000 0.000000 0.000000
								CHANNELS 3 Zrotation Yrotation Xrotation
								JOINT LeftHandIndex1
								{
									OFFSET 0.750000 0.000000 0.000000
									CHANNELS 3 Zrotation Yrotation Xrotation
									End Site
									{
										OFFSET 0.000000 0.000000 0.000000
									}
								}
							}
						}
					}
				}
				JOINT RightShoulder
				{
					OFFSET 0.000000 0.000000 0.000000
					CHANNELS 3 Zrotation Yrotation Xrotation
					JOINT RightArm
					{
						OFFSET -2.700000 1.550000 -0.730000
						CHANNELS 3 Zrotation Yrotation Xrotation
						JOINT RightForeArm
						{
							OFFSET -5.450000 0.000000 0.000000
							CHANNELS 3 Zrotation Yrotation Xrotation
							JOINT RightHand
							{
								OFFSET -3.450000 0.000000 0.000000
								CHANNELS 3 Zrotation Yrotation Xrotation
								JOINT RightHandIndex1
								{
									OFFSET -0.750000 0.000000 0.000000
									CHANNELS 3 Zrotation Yrotation Xrotation
									End Site
									{
										OFFSET 0.000000 0.000000 0.000000
									}
								}
							}
						}
					}
				}
			}
		}
	}
}
MOTION
Frames: 9
Frame Time: 0.016667
0.051290 16.037340 -3.209950 -4.674378 -30.352717 -4.957611 -15.097113 12.703095 4.847486 12.925206 -5.032544 -41.656723 0.352561 7.294546 39.072536 -0.985920 6.625950 1.826159 0.350270 0.093310 0.214450 18.303970 -10.215406 2.949510 -6.008034 7.744312 -19.795056 6.646076 -11.125338 47.258120 -1.340033 -6.759605 2.007844 0.095500 -0.174530 -0.055350 -3.594237 -2.235350 -8.722116 13.095544 -2.448694 40.312058 -11.389538 8.347598 -2.829313 6.091440 -8.347931 -21.974081 -31.154417 14.271038 58.482550 3.410730 0.298430 -45.645440 -32.845421 -27.581237 5.831820 -46.462760 -8.883221 -7.643284 12.327703 -19.753897 -4.558587 -3.076916 2.180904 1.629530 -0.595090 0.542870 0.037530 23.085709 39.303846 14.379798 57.203632 8.452535 -9.680580 -2.608842 17.731354 -0.363629 1.795114 -0.427451 -0.552570 0.799720 0.321250 -0.428720 
0.058110 15.968640 -3.218160 -4.295509 -30.046382 -4.848965 -15.146957 12.482826 5.034456 13.312531 -5.634611 -43.111360 -0.107440 7.783461 40.870292 -0.895968 6.999001 1.707700 0.341410 0.079690 0.205860 18.307051 -10.020534 2.987952 -7.094343 8.186862 -21.223915 7.518731 -12.124017 49.195543 -1.420846 -7.209226 1.867034 0.079000 -0.168730 -0.053830 -3.584881 -2.250950 -8.865400 12.293673 -2.674670 41.174778 -11.567167 8.099040 -3.997670 6.057569 -8.455632 -21.693713 -30.599017 13.408941 56.851553 3.181450 0.151650 -45.799820 -34.370784 -26.980861 5.450735 -44.367367 -8.403198 -7.681811 12.374690 -19.176152 -4.320083 -3.087376 2.199811 1.608240 -0.591060 0.529580 0.047450 24.687223 38.690640 14.131611 56.229236 8.080735 -9.209321 -2.696651 16.353066 -0.180960 1.830928 -0.440401 -0.544180 0.781570 0.309100 -0.419180 
0.065180 15.865650 -3.227220 -3.795185 -30.038879 -4.821997 -15.238953 12.171269 5.300906 14.230001 -6.287774 -45.253526 -0.845717 8.739990 43.777223 -0.753235 7.662564 1.489129 0.310840 0.046390 0.184510 18.301392 -9.683981 3.063833 -8.553549 8.935959 -23.302270 8.463546 -13.588614 52.452751 -1.550744 -7.941925 1.643478 0.052940 -0.153060 -0.053400 -3.529916 -2.350245 -9.097343 10.921921 -2.672834 42.514724 -11.294505 7.932690 -5.346789 5.960182 -8.432484 -21.502021 -29.507013 12.294860 54.709387 2.377930 0.138140 -45.410930 -37.079997 -26.455731 5.007296 -40.881741 -7.967907 -7.492533 12.475701 -17.557203 -3.870411 -3.130736 2.213743 1.568200 -0.570780 0.500260 0.048460 27.688973 37.919905 13.968407 53.976887 7.249448 -8.963491 -3.752294 15.224825 -0.119189 1.861487 -0.458276 -0.538530 0.756990 0.307650 -0.409120 
0.070700 15.745660 -3.221760 -3.299307 -30.328061 -4.827732 -15.334506 11.819539 5.577848 15.435639 -6.822299 -47.503370 -1.641397 10.035233 47.308268 -0.587636 8.505372 1.210343 0.285060 0.025820 0.165220 18.301048 -9.336617 3.141348 -10.160170 9.571040 -25.396929 9.186272 -15.217550 56.034055 -1.706299 -8.760186 1.400672 0.042060 -0.125020 -0.049300 -3.491703 -2.411955 -9.339595 9.644260 -2.557700 42.970917 -10.710739 7.669273 -5.723721 5.671541 -8.225804 -21.387919 -28.119392 11.588979 53.091662 1.604950 0.471600 -44.256110 -39.079723 -26.449270 4.924497 -37.857404 -7.872492 -6.683122 12.921263 -14.276147 -3.292487 -3.215036 2.203250 1.524400 -0.534250 0.472240 0.050650 30.277167 37.326850 13.769082 52.015728 6.943837 -8.737344 -5.717047 13.961602 -0.162738 1.882785 -0.484910 -0.537240 0.745630 0.309920 -0.399200 
0.072430 15.631320 -3.206930 -2.750427 -30.740340 -5.318116 -15.410994 11.565184 5.762621 16.373456 -7.159730 -48.972705 -2.261842 11.318513 50.584131 -0.449019 9.284794 0.947710 0.277450 0.026200 0.161890 18.297585 -9.066960 3.202167 -11.532527 10.043062 -26.941129 9.168249 -16.610091 59.896800 -1.880735 -9.557242 1.171225 0.047730 -0.109070 -0.048470 -3.451156 -2.483859 -9.526579 8.339352 -2.407151 43.212759 -9.913586 7.258891 -5.538401 5.319792 -7.872661 -21.594757 -26.894625 11.611258 52.733313 1.091130 1.206390 -43.363910 -40.026625 -26.926380 5.198125 -35.761776 -7.601025 -5.597536 13.415158 -10.409258 -2.708562 -3.302852 2.168983 1.506880 -0.507180 0.459990 0.049150 31.964211 37.096834 13.541946 50.557087 7.240181 -8.507327 -7.215835 12.797124 -0.177835 1.891558 -0.497432 -0.542910 0.747640 0.312980 -0.401600 
0.075190 15.530410 -3.176760 -2.318182 -31.603679 -5.960080 -15.466289 11.382039 5.904271 17.207020 -7.274980 -50.115159 -2.314732 12.469552 54.029243 -0.309431 10.040974 0.685305 0.289020 0.052250 0.162240 18.297312 -8.880574 3.220517 -12.444690 10.331071 -27.932730 8.469211 -17.457945 63.304352 -2.029449 -10.172920 0.989448 0.068510 -0.098110 -0.040390 -3.433809 -2.538584 -9.660895 7.588400 -2.464930 42.604913 -9.102620 6.823021 -4.188506 4.983346 -7.675183 -22.563391 -26.952681 12.711691 53.482681 1.207160 2.024370 -41.722870 -39.980337 -28.297634 5.874438 -35.044668 -7.140179 -4.347013 14.170744 -5.943990 -2.117604 -3.391515 2.148270 1.493110 -0.487690 0.462670 0.051340 32.767069 37.844099 13.596688 49.777595 7.827375 -8.476130 -9.181489 11.752157 -0.271725 1.894937 -0.525164 -0.536700 0.751970 0.315700 -0.397160 
0.079700 15.451510 -3.139050 -1.843572 -33.243604 -6.931415 -15.502083 11.299579 5.967293 18.030381 -6.945413 -50.438260 -2.455902 13.733559 57.050609 -0.178355 10.730680 0.441780 0.320460 0.098520 0.189270 18.294619 -8.795965 3.197897 -12.690308 10.695885 -28.336169 6.745111 -17.315392 66.422359 -2.141139 -10.551967 0.878962 0.097170 -0.110810 -0.036850 -3.419630 -2.558447 -9.726852 6.942702 -2.372825 41.946691 -8.365474 6.402809 -2.962425 4.695906 -7.492500 -23.423597 -27.380869 14.291958 55.206865 1.040860 3.063990 -40.452850 -39.052879 -29.454661 6.491080 -35.682878 -6.039105 -3.305658 14.476266 -2.168855 -1.548255 -3.443210 2.127575 1.494970 -0.485000 0.484720 0.052230 32.558998 38.569022 13.559308 49.908153 8.508219 -8.622065 -10.494081 11.368280 -0.404368 1.893399 -0.544347 -0.526700 0.758280 0.303770 -0.400760 
0.078000 15.383460 -3.090010 -1.516166 -35.280086 -7.870586 -15.524520 11.294044 5.961073 18.884933 -6.285683 -50.120826 -2.519545 14.866500 59.318977 -0.083757 11.272352 0.251575 0.342410 0.130980 0.209830 18.290474 -8.765906 3.163463 -12.511927 11.086851 -28.405988 4.763717 -16.660055 69.017361 -2.210155 -10.777136 0.823174 0.123960 -0.121590 -0.052550 -3.408212 -2.581853 -9.736916 6.612654 -2.362073 41.041764 -7.624841 5.904083 -2.204269 4.384790 -7.529446 -23.884723 -28.338448 16.108371 56.684079 0.788530 4.094610 -39.226200 -38.189736 -29.977612 6.975912 -36.942969 -4.335940 -2.642975 14.218741 0.348469 -1.100093 -3.455790 2.103768 1.501570 -0.485440 0.493220 0.051520 32.399693 38.805359 13.481011 50.264692 8.846901 -8.902785 -11.153747 11.573388 -0.572683 1.882718 -0.547566 -0.533820 0.773810 0.295020 -0.410770 
0.066650 15.330220 -3.033780 -1.281745 -37.653469 -8.876465 -15.540856 11.333122 5.915232 19.936043 -5.290413 -49.278047 -2.764523 16.119331 61.151511 0.014034 11.779151 0.078609 0.360630 0.152560 0.223640 18.286839 -8.761115 3.119822 -11.763841 11.621259 -28.133472 2.342903 -15.425986 71.482151 -2.266768 -10.915214 0.788675 0.140390 -0.123130 -0.049800 -3.398713 -2.599663 -9.709589 6.576424 -2.360594 40.068424 -6.912146 5.482567 -1.921583 4.037023 -7.705979 -23.970744 -29.770068 18.236342 57.920155 0.313500 5.108530 -37.873250 -37.945500 -29.765762 7.336071 -38.018942 -2.155614 -2.269382 13.261076 1.553811 -0.839505 -3.446693 2.094064 1.504770 -0.481700 0.501890 0.054530 32.880263 38.357469 13.344747 50.274138 8.702820 -9.247971 -11.098427 12.191912 -0.724803 1.872121 -0.543835 -0.532160 0.780220 0.292080 -0.412960 
